<?xml version="1.0" encoding="UTF-8" standalone="no"?>
<!-- Created with Inkscape (http://www.inkscape.org/) -->

<svg
   width="512"
   height="512"
   viewBox="0 0 135.46666 135.46667"
   version="1.1"
   id="svg5"
   inkscape:version="1.1.1 (3bf5ae0d25, 2021-09-20)"
   sodipodi:docname="logo.svg"
   inkscape:export-filename="C:\Users\SPUD\Documents\WebDevelopment\SlusserTherapeutics\public\images\logo.png"
   inkscape:export-xdpi="96"
   inkscape:export-ydpi="96"
   xmlns:inkscape="http://www.inkscape.org/namespaces/inkscape"
   xmlns:sodipodi="http://sodipodi.sourceforge.net/DTD/sodipodi-0.dtd"
   xmlns="http://www.w3.org/2000/svg"
   xmlns:svg="http://www.w3.org/2000/svg">
  <sodipodi:namedview
     id="namedview7"
     pagecolor="#ffffff"
     bordercolor="#111111"
     borderopacity="1"
     inkscape:pageshadow="0"
     inkscape:pageopacity="0"
     inkscape:pagecheckerboard="1"
     inkscape:document-units="mm"
     showgrid="false"
     units="px"
     inkscape:zoom="1.0998546"
     inkscape:cx="71.373071"
     inkscape:cy="303.2219"
     inkscape:window-width="2544"
     inkscape:window-height="1361"
     inkscape:window-x="1899"
     inkscape:window-y="198"
     inkscape:window-maximized="0"
     inkscape:current-layer="layer1" />
  <defs
     id="defs2">
    <rect
       x="-693.72806"
       y="201.84486"
       width="592.80563"
       height="99.104009"
       id="rect31838" />
    <rect
       x="-686.45437"
       y="170.93168"
       width="560.98324"
       height="162.74879"
       id="rect11340" />
  </defs>
  <g
     inkscape:label="Layer 1"
     inkscape:groupmode="layer"
     id="layer1"
     style="display:inline" />
  <g
     inkscape:groupmode="layer"
     id="layer2"
     inkscape:label="Layer 2"
     sodipodi:insensitive="true">
    <g
       id="g47221">
      <path
         style="fill:#ffffff;stroke:none;stroke-width:0.204584px;stroke-linecap:butt;stroke-linejoin:miter;stroke-opacity:1"
         d="m 51.883091,47.951769 c 0,0 0.131529,5.392691 0.920703,7.628682 0.789174,2.235991 3.814341,7.760209 3.814341,7.760209 0,0 -10.916906,2.499052 -14.731247,3.814341 -3.814342,1.315289 -8.680914,4.077402 -8.680914,4.077402 0,0 12.763726,-2.834889 17.361827,-3.288227 9.338559,-0.920702 27.621089,0.526114 27.621089,0.526114 0,0 -18.545588,5.392691 -19.992407,5.918806 -1.446819,0.526114 -10.390791,3.945875 -10.390791,3.945875 0,0 -11.443022,3.55128 -18.28253,3.55128 -6.839508,0 -9.338558,-0.526114 -9.338558,-0.526114 0,0 -7.891739,-1.183763 -7.76021,-6.313393 0.131527,-5.12963 5.392688,-9.733147 5.392688,-9.733147 0,0 8.154798,-5.918805 16.178067,-9.338559 8.023267,-3.419753 17.887942,-8.023269 17.887942,-8.023269 z"
         id="path870"
         sodipodi:nodetypes="cscscscscscscsc" />
      <path
         style="fill:#ffffff;stroke:none;stroke-width:0.204584px;stroke-linecap:butt;stroke-linejoin:miter;stroke-opacity:1"
         d="m 81.082527,47.951769 c 0,0 -0.394586,5.918805 -1.18376,8.417857 -0.789174,2.499052 -3.288225,7.102568 -3.288225,7.102568 0,0 14.205131,3.025166 18.28253,4.866569 4.077399,1.841404 5.524218,3.288227 5.524218,3.288227 0,0 -9.470088,-1.841411 -18.677117,-0.526121 -9.20703,1.315297 -27.752618,8.154804 -27.752618,8.154804 0,0 12.232197,-1.446824 17.230298,-1.183763 4.998102,0.263061 16.178066,1.709877 16.178066,1.709877 0,0 15.257361,3.025166 21.702281,2.367525 6.44492,-0.657648 8.02327,-2.104464 8.02327,-2.104464 0,0 4.47199,-2.630586 3.02517,-7.760217 -1.44682,-5.12963 -8.54938,-9.864673 -8.54938,-9.864673 0,0 -25.51663,-13.284427 -30.514733,-14.468189 z"
         id="path1234" />
      <path
         style="fill:#ffffff;stroke:none;stroke-width:0.204584px;stroke-linecap:butt;stroke-linejoin:miter;stroke-opacity:1"
         d="m 66.219752,36.114165 c 0,0 -5.817232,-0.191111 -9.20703,5.129623 -1.437001,2.255561 -1.446819,7.891743 -1.446819,7.891743 0,0 0.657645,10.390788 6.57645,14.336655 5.918804,3.945876 10.39079,-1.315289 10.39079,-1.315289 0,0 6.77,-6.197107 5.26116,-16.309593 -1.45671,-9.763101 -11.574551,-9.733139 -11.574551,-9.733139 z"
         id="path1850"
         sodipodi:nodetypes="cscscsc" />
      <path
         style="fill:#afe9c6;stroke:none;stroke-width:0.204584px;stroke-linecap:butt;stroke-linejoin:miter;stroke-opacity:1"
         d="m 48.594867,42.822138 -25.648155,-6.444919 25.122038,8.68091 c 0,0 -8.694762,5.617439 -14.731246,4.208929 -3.94587,-0.920702 -6.345319,-2.196471 -8.549386,-4.998104 -3.21427,-4.085722 -4.603514,-8.680911 -4.603514,-8.680911 0,0 4.883091,-3.566877 7.760211,-4.077397 3.919564,-0.695494 8.154798,-0.920702 12.758313,2.499047 4.603514,3.419754 7.891739,8.812445 7.891739,8.812445 z"
         id="path3484"
         sodipodi:nodetypes="cccsscssc" />
      <path
         style="fill:#afe9c6;stroke:none;stroke-width:0.204584px;stroke-linecap:butt;stroke-linejoin:miter;stroke-opacity:1"
         d="m 84.370753,42.853848 25.648157,-6.444919 -25.12204,8.68091 c 0,0 8.694762,5.617439 14.731246,4.208929 3.945874,-0.920702 6.345314,-2.196471 8.549384,-4.998104 3.21427,-4.085722 4.60352,-8.68091 4.60352,-8.68091 0,0 -4.8831,-3.566881 -7.76022,-4.077402 -3.91956,-0.695493 -8.154793,-0.920702 -12.758308,2.499051 -4.603514,3.419754 -7.891739,8.812445 -7.891739,8.812445 z"
         id="path3484-1"
         sodipodi:nodetypes="cccsscssc" />
      <path
         style="fill:#afe9c6;stroke:none;stroke-width:0.204584px;stroke-linecap:butt;stroke-linejoin:miter;stroke-opacity:1"
         d="m 35.573497,28.880065 c 0,0 -0.13153,-2.76211 0.657643,-5.392688 0.789175,-2.630581 1.972935,-4.077399 1.972935,-4.077399 0,0 7.89174,1.841406 9.864675,7.102565 1.972936,5.261159 -0.394587,10.522324 -0.394587,10.522324 v 0 l -1.52328,-1.65258 -7.026104,-13.604787 4.570632,11.081318 c 0,0 -4.439103,-3.978753 -8.121914,-3.978753 z"
         id="path4919"
         sodipodi:nodetypes="cscscccccc" />
      <path
         style="fill:#afe9c6;stroke:none;stroke-width:0.204584px;stroke-linecap:butt;stroke-linejoin:miter;stroke-opacity:1"
         d="m 97.481181,28.865126 c 0,0 0.13153,-2.762109 -0.657643,-5.392688 -0.789175,-2.630581 -1.972936,-4.077399 -1.972936,-4.077399 0,0 -7.89174,1.841406 -9.864674,7.102565 -1.972936,5.261159 0.394586,10.522316 0.394586,10.522316 v 0 l 1.52328,-1.652572 7.026104,-13.604787 -4.570631,11.081318 c 0,0 4.439102,-3.978753 8.121914,-3.978753 z"
         id="path4919-7"
         sodipodi:nodetypes="cscscccccc" />
      <path
         style="fill:#afe9c6;stroke:none;stroke-width:0.204584px;stroke-linecap:butt;stroke-linejoin:miter;stroke-opacity:1"
         d="m 32.205445,51.691253 c 0,0 -4.092222,6.184836 -8.602967,6.091832 -4.510743,-0.093 -7.021879,-2.232117 -7.021879,-2.232117 l -2.743651,-2.232125 c 0,0 1.613915,-3.400531 3.580696,-5.022268 2.650641,-2.185622 5.998824,-2.092618 5.998824,-2.092618 0,0 1.441579,1.62759 2.232122,2.278627 0.790542,0.651037 2.464633,1.581087 2.464633,1.581087 l -12.462676,3.022661 14.648294,-1.999606 c 0,0 0.697538,0.511523 1.906604,0.604527 z"
         id="path5568"
         sodipodi:nodetypes="csccscscccc" />
      <path
         style="fill:#afe9c6;stroke:none;stroke-width:0.204584px;stroke-linecap:butt;stroke-linejoin:miter;stroke-opacity:1"
         d="m 101.56396,51.574774 c 0,0 4.09222,6.184835 8.60296,6.091831 4.51075,-0.093 7.02188,-2.232117 7.02188,-2.232117 l 2.74365,-2.232125 c 0,0 -1.61391,-3.400531 -3.58069,-5.022267 -2.65064,-2.185623 -5.99883,-2.092619 -5.99883,-2.092619 0,0 -1.44157,1.62759 -2.23212,2.278627 -0.79054,0.651038 -2.46463,1.581088 -2.46463,1.581088 l 12.46268,3.022661 -14.6483,-1.999607 c 0,0 -0.69754,0.511523 -1.9066,0.604528 z"
         id="path5568-4"
         sodipodi:nodetypes="csccscscccc" />
      <path
         style="fill:#666666;stroke:#a5a5a5;stroke-width:1.94396;stroke-linecap:round;stroke-linejoin:round;stroke-miterlimit:4;stroke-dasharray:none;stroke-opacity:1"
         d="M 3.3273758,85.684602 H 129.81424 Z"
         id="path5892" />
      <text
         xml:space="preserve"
         transform="matrix(0.84406238,0,0,0.49091419,584.82863,0.93367039)"
         id="text11338"
         style="font-style:normal;font-weight:normal;font-size:40px;line-height:1.25;font-family:sans-serif;white-space:pre;shape-inside:url(#rect11340);fill:#00aa88;fill-opacity:1;stroke:none"><tspan
           x="-686.45508"
           y="207.42485"
           id="tspan1164"><tspan
             style="font-family:'Segoe Script';-inkscape-font-specification:'Segoe Script'"
             id="tspan1162">Slusser</tspan></tspan></text>
      <text
         xml:space="preserve"
         transform="matrix(0.35084612,0,0,0.19058492,271.29704,65.135338)"
         id="text31836"
         style="font-style:normal;font-weight:normal;font-size:40px;line-height:1.25;font-family:sans-serif;white-space:pre;shape-inside:url(#rect31838);fill:#afe9c6;fill-opacity:1;stroke:none"><tspan
           x="-693.72852"
           y="238.33892"
           id="tspan1168"><tspan
             style="font-family:'MV Boli';-inkscape-font-specification:'MV Boli'"
             id="tspan1166">therapeutics</tspan></tspan></text>
    </g>
  </g>
</svg>
